<?xml version="1.0" encoding="UTF-8" standalone="no"?>
<svg
   width="24.925249mm"
   height="12.833418mm"
   viewBox="0 0 24.925249 12.833418"
   version="1.1"
   id="svg13143"
   inkscape:version="1.3.2 (091e20e, 2023-11-25)"
   sodipodi:docname="foo.svg"
   xmlns:inkscape="http://www.inkscape.org/namespaces/inkscape"
   xmlns:sodipodi="http://sodipodi.sourceforge.net/DTD/sodipodi-0.dtd"
   xmlns="http://www.w3.org/2000/svg"
   xmlns:svg="http://www.w3.org/2000/svg"
   xmlns:rdf="http://www.w3.org/1999/02/22-rdf-syntax-ns#"
   xmlns:cc="http://creativecommons.org/ns#"
   xmlns:dc="http://purl.org/dc/elements/1.1/">
  <defs
     id="defs13137">
    <clipPath
       clipPathUnits="userSpaceOnUse"
       id="clipPath12378">
      <path
         d="m 209.023,754.989 h 174.529 v 58.23 H 209.023 Z"
         id="path12376" />
    </clipPath>
  </defs>
  <sodipodi:namedview
     id="base"
     pagecolor="#ffffff"
     bordercolor="#666666"
     borderopacity="1.0"
     inkscape:pageopacity="0.0"
     inkscape:pageshadow="2"
     inkscape:zoom="1.979899"
     inkscape:cx="52.275394"
     inkscape:cy="-0.50507627"
     inkscape:document-units="mm"
     inkscape:current-layer="layer1"
     inkscape:document-rotation="0"
     showgrid="false"
     fit-margin-top="0"
     fit-margin-left="0"
     fit-margin-right="0"
     fit-margin-bottom="0"
     inkscape:window-width="1744"
     inkscape:window-height="1067"
     inkscape:window-x="55"
     inkscape:window-y="25"
     inkscape:window-maximized="0"
     inkscape:showpageshadow="2"
     inkscape:pagecheckerboard="0"
     inkscape:deskcolor="#d1d1d1" />
  <metadata
     id="metadata13140">
    <rdf:RDF>
      <cc:Work
         rdf:about="">
        <dc:format>image/svg+xml</dc:format>
        <dc:type
           rdf:resource="http://purl.org/dc/dcmitype/StillImage" />
      </cc:Work>
    </rdf:RDF>
  </metadata>
  <g
     inkscape:label="Calque 1"
     inkscape:groupmode="layer"
     id="layer1"
     transform="translate(-103.05569,-97.837382)">
    <path
       d="m 115.911,103.89581 4.09257,-3.56129 4.87927,-2.451102 -4.02448,3.400422 c 0.0861,0.14111 0.16651,0.28575 0.23918,0.43427 l 6.8834,-3.880553 -6.46077,5.019673 c 0.11006,0.43815 0.16792,0.89429 0.16792,1.36419 0,3.23215 -2.75802,5.85223 -6.16021,5.85223 -1.09502,0 -2.12337,-0.27093 -3.01413,-0.74683 l 7.18891,-3.90525 -5.20418,3.96452 c 0.33267,0.0667 0.67698,0.10266 1.0294,0.10266 2.88008,0 5.21406,-2.35867 5.21406,-5.26733 0,-0.9271 -0.23672,-1.7981 -0.65299,-2.55446 z"
       style="fill:#1e4697;fill-opacity:1;fill-rule:nonzero;stroke:none;stroke-width:0.352778"
       id="path12490" />
    <path
       d="m 110.93535,106.71902 c -0.39758,-0.7433 -0.62195,-1.59385 -0.62195,-2.49767 0,-2.909 2.33433,-5.267674 5.21441,-5.267674 0.31433,0 0.62265,0.02787 0.92181,0.08184 l 0.0402,0.05045 -5.17984,3.838224 7.23441,-3.808943 c -0.88194,-0.461081 -1.93992,-0.747183 -3.0166,-0.747183 -3.40254,0 -6.16091,2.621136 -6.16091,5.853286 0,0.46073 0.0561,0.90876 0.16193,1.3395 l -6.47312,4.99392 6.87281,-3.88796 c 0.0847,0.17427 0.17745,0.3436 0.27905,0.50765 l -4.28484,3.44946 5.08706,-2.52025 4.09222,-3.67629 -4.16666,2.29164"
       style="fill:#1e4697;fill-opacity:1;fill-rule:nonzero;stroke:none;stroke-width:0.352778"
       id="path12494" />
    <path
       d="m 108.92865,110.6708 2.26589,-2.33609 6.28932,-3.46816 -5.20312,4.23121 z"
       style="fill:#1e4697;fill-opacity:1;fill-rule:nonzero;stroke:none;stroke-width:0.352778"
       id="path12498" />
    <path
       d="m 113.66864,103.43279 5.10928,-4.115505 3.26037,-1.479903 -2.19604,2.242958 z"
       style="fill:#1e4697;fill-opacity:1;fill-rule:nonzero;stroke:none;stroke-width:0.352778"
       id="path12502" />
  </g>
</svg>
